<mxfile host="app.diagrams.net" agent="Mozilla/5.0 (X11; Linux x86_64) AppleWebKit/537.36 (KHTML, like Gecko) Chrome/129.0.0.0 Safari/537.36" version="24.8.3">
  <diagram name="Page-1" id="rfHXdcp0lVL2844gEppq">
    <mxGraphModel dx="1634" dy="898" grid="1" gridSize="10" guides="1" tooltips="1" connect="1" arrows="1" fold="1" page="1" pageScale="1" pageWidth="850" pageHeight="1100" math="0" shadow="0">
      <root>
        <mxCell id="0" />
        <mxCell id="1" parent="0" />
        <mxCell id="dleVYfyF5M6djClrJ9j7-15" style="edgeStyle=orthogonalEdgeStyle;rounded=0;orthogonalLoop=1;jettySize=auto;html=1;exitX=0.5;exitY=1;exitDx=0;exitDy=0;startArrow=classic;startFill=1;" edge="1" parent="1" source="dleVYfyF5M6djClrJ9j7-1" target="dleVYfyF5M6djClrJ9j7-14">
          <mxGeometry relative="1" as="geometry" />
        </mxCell>
        <mxCell id="dleVYfyF5M6djClrJ9j7-1" value="" style="rounded=0;whiteSpace=wrap;html=1;" vertex="1" parent="1">
          <mxGeometry x="260" y="190" width="200" height="400" as="geometry" />
        </mxCell>
        <mxCell id="dleVYfyF5M6djClrJ9j7-2" value="Streambuster API (Go)" style="text;html=1;align=center;verticalAlign=middle;resizable=0;points=[];autosize=1;strokeColor=none;fillColor=none;" vertex="1" parent="1">
          <mxGeometry x="290" y="190" width="140" height="30" as="geometry" />
        </mxCell>
        <mxCell id="dleVYfyF5M6djClrJ9j7-20" style="edgeStyle=orthogonalEdgeStyle;rounded=0;orthogonalLoop=1;jettySize=auto;html=1;exitX=0.5;exitY=1;exitDx=0;exitDy=0;startArrow=classic;startFill=1;" edge="1" parent="1" source="dleVYfyF5M6djClrJ9j7-3" target="dleVYfyF5M6djClrJ9j7-5">
          <mxGeometry relative="1" as="geometry" />
        </mxCell>
        <mxCell id="dleVYfyF5M6djClrJ9j7-3" value="User Service" style="rounded=1;whiteSpace=wrap;html=1;" vertex="1" parent="1">
          <mxGeometry x="315" y="230" width="120" height="60" as="geometry" />
        </mxCell>
        <mxCell id="dleVYfyF5M6djClrJ9j7-22" style="edgeStyle=orthogonalEdgeStyle;rounded=0;orthogonalLoop=1;jettySize=auto;html=1;exitX=0;exitY=0.5;exitDx=0;exitDy=0;entryX=0;entryY=0.5;entryDx=0;entryDy=0;" edge="1" parent="1" source="dleVYfyF5M6djClrJ9j7-4" target="dleVYfyF5M6djClrJ9j7-3">
          <mxGeometry relative="1" as="geometry" />
        </mxCell>
        <mxCell id="dleVYfyF5M6djClrJ9j7-4" value="CDN Service" style="rounded=1;whiteSpace=wrap;html=1;" vertex="1" parent="1">
          <mxGeometry x="315" y="410" width="120" height="60" as="geometry" />
        </mxCell>
        <mxCell id="dleVYfyF5M6djClrJ9j7-5" value="Auth Service" style="rounded=1;whiteSpace=wrap;html=1;" vertex="1" parent="1">
          <mxGeometry x="315" y="320" width="120" height="60" as="geometry" />
        </mxCell>
        <mxCell id="dleVYfyF5M6djClrJ9j7-23" style="edgeStyle=orthogonalEdgeStyle;rounded=0;orthogonalLoop=1;jettySize=auto;html=1;exitX=0;exitY=0.5;exitDx=0;exitDy=0;entryX=0;entryY=0.25;entryDx=0;entryDy=0;" edge="1" parent="1" source="dleVYfyF5M6djClrJ9j7-6" target="dleVYfyF5M6djClrJ9j7-3">
          <mxGeometry relative="1" as="geometry" />
        </mxCell>
        <mxCell id="dleVYfyF5M6djClrJ9j7-6" value="Search Service" style="rounded=1;whiteSpace=wrap;html=1;" vertex="1" parent="1">
          <mxGeometry x="315" y="490" width="120" height="60" as="geometry" />
        </mxCell>
        <mxCell id="dleVYfyF5M6djClrJ9j7-7" value="&lt;font style=&quot;font-size: 23px;&quot;&gt;...&lt;/font&gt;" style="text;html=1;align=center;verticalAlign=middle;resizable=0;points=[];autosize=1;strokeColor=none;fillColor=none;" vertex="1" parent="1">
          <mxGeometry x="340" y="540" width="40" height="40" as="geometry" />
        </mxCell>
        <mxCell id="dleVYfyF5M6djClrJ9j7-8" value="" style="rounded=0;whiteSpace=wrap;html=1;" vertex="1" parent="1">
          <mxGeometry x="550" y="325" width="210" height="130" as="geometry" />
        </mxCell>
        <mxCell id="dleVYfyF5M6djClrJ9j7-9" value="Streambuster Model API (JS)" style="text;html=1;align=center;verticalAlign=middle;resizable=0;points=[];autosize=1;strokeColor=none;fillColor=none;" vertex="1" parent="1">
          <mxGeometry x="565" y="325" width="180" height="30" as="geometry" />
        </mxCell>
        <mxCell id="dleVYfyF5M6djClrJ9j7-10" value="LLM Query Service" style="rounded=1;whiteSpace=wrap;html=1;" vertex="1" parent="1">
          <mxGeometry x="595" y="365" width="120" height="60" as="geometry" />
        </mxCell>
        <mxCell id="dleVYfyF5M6djClrJ9j7-11" value="" style="endArrow=classic;html=1;rounded=0;" edge="1" parent="1" source="dleVYfyF5M6djClrJ9j7-1" target="dleVYfyF5M6djClrJ9j7-8">
          <mxGeometry width="50" height="50" relative="1" as="geometry">
            <mxPoint x="560" y="300" as="sourcePoint" />
            <mxPoint x="610" y="250" as="targetPoint" />
          </mxGeometry>
        </mxCell>
        <mxCell id="dleVYfyF5M6djClrJ9j7-12" value="" style="endArrow=classic;html=1;rounded=0;" edge="1" parent="1" source="dleVYfyF5M6djClrJ9j7-8" target="dleVYfyF5M6djClrJ9j7-1">
          <mxGeometry width="50" height="50" relative="1" as="geometry">
            <mxPoint x="540" y="400" as="sourcePoint" />
            <mxPoint x="590" y="400" as="targetPoint" />
          </mxGeometry>
        </mxCell>
        <mxCell id="dleVYfyF5M6djClrJ9j7-13" value="HTTPS" style="edgeLabel;html=1;align=center;verticalAlign=middle;resizable=0;points=[];" vertex="1" connectable="0" parent="dleVYfyF5M6djClrJ9j7-12">
          <mxGeometry x="0.031" y="-3" relative="1" as="geometry">
            <mxPoint y="-7" as="offset" />
          </mxGeometry>
        </mxCell>
        <mxCell id="dleVYfyF5M6djClrJ9j7-14" value="Postgres&lt;div&gt;DB&lt;/div&gt;" style="shape=cylinder3;whiteSpace=wrap;html=1;boundedLbl=1;backgroundOutline=1;size=15;" vertex="1" parent="1">
          <mxGeometry x="330" y="640" width="60" height="80" as="geometry" />
        </mxCell>
        <mxCell id="dleVYfyF5M6djClrJ9j7-18" style="edgeStyle=orthogonalEdgeStyle;rounded=0;orthogonalLoop=1;jettySize=auto;html=1;exitX=1;exitY=0.5;exitDx=0;exitDy=0;entryX=0;entryY=0.5;entryDx=0;entryDy=0;startArrow=classic;startFill=1;" edge="1" parent="1" source="dleVYfyF5M6djClrJ9j7-16">
          <mxGeometry relative="1" as="geometry">
            <mxPoint x="260" y="390" as="targetPoint" />
          </mxGeometry>
        </mxCell>
        <mxCell id="dleVYfyF5M6djClrJ9j7-19" value="HTTPS" style="edgeLabel;html=1;align=center;verticalAlign=middle;resizable=0;points=[];" vertex="1" connectable="0" parent="dleVYfyF5M6djClrJ9j7-18">
          <mxGeometry x="-0.1123" y="-3" relative="1" as="geometry">
            <mxPoint y="-13" as="offset" />
          </mxGeometry>
        </mxCell>
        <mxCell id="dleVYfyF5M6djClrJ9j7-16" value="Streambuster&amp;nbsp;&lt;div&gt;(client)&lt;/div&gt;" style="ellipse;whiteSpace=wrap;html=1;" vertex="1" parent="1">
          <mxGeometry x="30" y="350" width="120" height="80" as="geometry" />
        </mxCell>
      </root>
    </mxGraphModel>
  </diagram>
</mxfile>
